<svg width="24" height="24" viewBox="0 0 24 24" fill="none" xmlns="http://www.w3.org/2000/svg">
<rect width="24" height="24" rx="12" fill="url(#paint0_linear_338_3)"/>
<path d="M13.9375 14.5234C13.9375 14.3203 13.9062 14.138 13.8438 13.9766C13.7865 13.8099 13.6771 13.6589 13.5156 13.5234C13.3542 13.3828 13.1276 13.2448 12.8359 13.1094C12.5443 12.974 12.1667 12.8333 11.7031 12.6875C11.1875 12.5208 10.6979 12.3333 10.2344 12.125C9.77604 11.9167 9.36979 11.6745 9.01562 11.3984C8.66667 11.1172 8.39062 10.7917 8.1875 10.4219C7.98958 10.0521 7.89062 9.6224 7.89062 9.13281C7.89062 8.65885 7.99479 8.22917 8.20312 7.84375C8.41146 7.45312 8.70312 7.11979 9.07812 6.84375C9.45312 6.5625 9.89583 6.34635 10.4062 6.19531C10.9219 6.04427 11.487 5.96875 12.1016 5.96875C12.9401 5.96875 13.6719 6.11979 14.2969 6.42188C14.9219 6.72396 15.4062 7.13802 15.75 7.66406C16.099 8.1901 16.2734 8.79167 16.2734 9.46875H13.9453C13.9453 9.13542 13.875 8.84375 13.7344 8.59375C13.599 8.33854 13.3906 8.13802 13.1094 7.99219C12.8333 7.84635 12.4844 7.77344 12.0625 7.77344C11.6562 7.77344 11.3177 7.83594 11.0469 7.96094C10.776 8.08073 10.5729 8.24479 10.4375 8.45312C10.3021 8.65625 10.2344 8.88542 10.2344 9.14062C10.2344 9.33333 10.2812 9.50781 10.375 9.66406C10.474 9.82031 10.6198 9.96615 10.8125 10.1016C11.0052 10.237 11.2422 10.3646 11.5234 10.4844C11.8047 10.6042 12.1302 10.7214 12.5 10.8359C13.1198 11.0234 13.6641 11.2344 14.1328 11.4688C14.6068 11.7031 15.0026 11.9661 15.3203 12.2578C15.638 12.5495 15.8776 12.8802 16.0391 13.25C16.2005 13.6198 16.2812 14.0391 16.2812 14.5078C16.2812 15.0026 16.1849 15.4453 15.9922 15.8359C15.7995 16.2266 15.5208 16.5573 15.1562 16.8281C14.7917 17.099 14.3568 17.3047 13.8516 17.4453C13.3464 17.5859 12.7812 17.6562 12.1562 17.6562C11.5938 17.6562 11.0391 17.5833 10.4922 17.4375C9.94531 17.2865 9.44792 17.0599 9 16.7578C8.55729 16.4557 8.20312 16.0703 7.9375 15.6016C7.67188 15.1328 7.53906 14.5781 7.53906 13.9375H9.89062C9.89062 14.2917 9.94531 14.5911 10.0547 14.8359C10.1641 15.0807 10.3177 15.2786 10.5156 15.4297C10.7188 15.5807 10.9583 15.6901 11.2344 15.7578C11.5156 15.8255 11.8229 15.8594 12.1562 15.8594C12.5625 15.8594 12.8958 15.8021 13.1562 15.6875C13.4219 15.5729 13.6172 15.4141 13.7422 15.2109C13.8724 15.0078 13.9375 14.7786 13.9375 14.5234Z" fill="white"/>
<defs>
<linearGradient id="paint0_linear_338_3" x1="23.9969" y1="24.5352" x2="-1.68906" y2="1.33495" gradientUnits="userSpaceOnUse">
<stop stop-color="#FF6F47"/>
<stop offset="1" stop-color="#FFCD0F"/>
</linearGradient>
</defs>
</svg>
