<svg xmlns="http://www.w3.org/2000/svg" width="200" height="100" viewBox="0 0 200 100">
  <defs>
    <style>
      .cls-1 {
        fill: #5b5250;
      }

      .cls-2 {
        fill: #8e817e;
      }

      .cls-3 {
        fill: #f2e8df;
      }

      .cls-4 {
        fill: #e2dad3;
      }
    </style>
  </defs>
  <title>road_straight_right</title>
  <g id="Layer_2" data-name="Layer 2">
    <g id="Layer_1-2" data-name="Layer 1">
      <g>
        <polygon class="cls-1" points="0 50 100 100 200 50 100 0 0 50"/>
        <polygon class="cls-2" points="84 92 87 93.5 187 43.5 184 42 84 92"/>
        <polygon class="cls-3" points="90 95 100 100 200 50 190 45 90 95"/>
        <polygon class="cls-3" points="0 50 10 55 110 5 100 0 0 50"/>
        <polygon class="cls-2" points="13 56.5 16 58 116 8 113 6.5 13 56.5"/>
        <polygon class="cls-2" points="123.49 36.76 126.49 38.26 143.15 29.93 140.15 28.43 123.49 36.76"/>
        <polygon class="cls-2" points="90.17 53.41 93.17 54.91 109.83 46.59 106.83 45.09 90.17 53.41"/>
        <polygon class="cls-2" points="56.85 70.08 59.85 71.58 76.51 63.24 73.51 61.74 56.85 70.08"/>
        <path class="cls-4" d="M25,37.5,0,50l10,5L35,42.5Zm0,.25,9.5,4.75L10,54.75.51,50Z"/>
        <path class="cls-4" d="M50,25,25,37.5l10,5L60,30Zm0,.25L59.5,30,35,42.25,25.5,37.5Z"/>
        <path class="cls-4" d="M75,12.51,50,25l10,5,25-12.5Zm0,.25,9.5,4.75L60,29.76,50.49,25Z"/>
        <path class="cls-4" d="M100,0,75,12.51l10,5L110,5Zm0,.25L109.48,5,85,17.26l-9.5-4.75Z"/>
        <path class="cls-4" d="M115,82.5,90,95l10,5,25-12.5Zm0,.25,9.5,4.75L100,99.75,90.51,95Z"/>
        <path class="cls-4" d="M140,70,115,82.5l10,5L150,75Zm0,.25L149.5,75,125,87.25l-9.5-4.75Z"/>
        <path class="cls-4" d="M165,57.51,140,70l10,5,25-12.5Zm0,.25,9.5,4.75L150,74.76,140.49,70Z"/>
        <path class="cls-4" d="M190,45l-25,12.5,10,5L200,50Zm0,.25,9.5,4.75L175,62.26l-9.5-4.75Z"/>
      </g>
    </g>
  </g>
</svg>
